<svg width="223" height="223" viewBox="0 0 223 223" fill="none" xmlns="http://www.w3.org/2000/svg">
<path d="M126.705 86.3486L126.775 86.7373L127.097 86.5078L159.061 63.6758L136.211 96.7422L135.988 97.0645L136.375 97.1299L221.569 111.648L136.929 127.263L136.545 127.333L136.77 127.652L159.065 159.35L127.372 137.325L127.055 137.104L126.984 137.485L111.37 221.577L96.8516 136.932L96.7861 136.546L96.4639 136.768L63.665 159.35L86.2295 127.653L86.457 127.333L86.0713 127.263L1.42578 111.647L86.0684 97.1299L86.4521 97.0645L86.2324 96.7432L63.6387 63.6592L96.46 87.0654L96.7852 87.2969L96.8516 86.9033L111.368 1.44727L126.705 86.3486Z" fill="url(#paint0_linear_2735_8)" stroke="white" stroke-width="0.5"/>
<defs>
<linearGradient id="paint0_linear_2735_8" x1="6.57919" y1="44.3613" x2="242.859" y2="50.8561" gradientUnits="userSpaceOnUse">
<stop offset="0.0729167" stop-color="#E3A455"/>
<stop offset="0.244792" stop-color="#F6DBA6"/>
<stop offset="0.434957" stop-color="#FFEBC4"/>
<stop offset="0.561926" stop-color="#F0BE79"/>
<stop offset="0.627652" stop-color="#D17941"/>
<stop offset="0.675319" stop-color="#BA7F3B"/>
<stop offset="0.770409" stop-color="#EEBC70"/>
</linearGradient>
</defs>
</svg>
