<svg width="584" height="70" viewBox="0 0 584 70" fill="none" xmlns="http://www.w3.org/2000/svg">
<path d="M87.7799 -4.52995e-06V57H69.1599V7.372L72.7319 7.828L53.5799 57H34.1999L15.0479 8.056L18.6199 7.524V57H-5.84126e-05V-4.52995e-06H30.3239L47.3479 46.436H40.5839L57.4559 -4.52995e-06H87.7799ZM121.877 58.368C116.456 58.368 111.592 57.4053 107.285 55.48C103.029 53.504 99.6599 50.768 97.1772 47.272C94.6946 43.7253 93.4532 39.6213 93.4532 34.96C93.4532 30.3493 94.6439 26.3213 97.0252 22.876C99.4572 19.4307 102.751 16.7453 106.905 14.82C111.06 12.8947 115.721 11.932 120.889 11.932C126.311 11.932 130.921 13.0467 134.721 15.276C138.521 17.5053 141.435 20.672 143.461 24.776C145.488 28.8293 146.501 33.6427 146.501 39.216H109.261V30.324H135.253L130.085 33.212C129.832 31.236 129.325 29.5893 128.565 28.272C127.805 26.9547 126.792 25.9667 125.525 25.308C124.309 24.5987 122.84 24.244 121.117 24.244C119.192 24.244 117.545 24.6747 116.177 25.536C114.86 26.3973 113.847 27.588 113.137 29.108C112.479 30.5773 112.149 32.2493 112.149 34.124C112.149 36.556 112.681 38.608 113.745 40.28C114.86 41.9013 116.532 43.1427 118.761 44.004C120.991 44.8653 123.803 45.296 127.197 45.296C130.491 45.296 133.683 44.8907 136.773 44.08C139.915 43.2187 142.803 42.0027 145.437 40.432V51.376C142.195 53.656 138.496 55.404 134.341 56.62C130.237 57.7853 126.083 58.368 121.877 58.368ZM163.937 19.988H183.241V57H163.937V19.988ZM148.357 13.3H198.821V27.664H148.357V13.3ZM241.054 57L238.85 41.572L241.054 35.188L238.85 28.88L241.054 13.3H261.118L258.078 35.112L261.118 57H241.054ZM245.082 35.188C244.575 39.8493 243.308 43.928 241.282 47.424C239.306 50.8693 236.696 53.5547 233.454 55.48C230.262 57.4053 226.588 58.368 222.434 58.368C218.178 58.368 214.428 57.4053 211.186 55.48C207.994 53.5547 205.486 50.844 203.662 47.348C201.888 43.852 201.002 39.7987 201.002 35.188C201.002 30.5267 201.888 26.448 203.662 22.952C205.486 19.456 207.994 16.7453 211.186 14.82C214.428 12.8947 218.178 11.932 222.434 11.932C226.588 11.932 230.262 12.8947 233.454 14.82C236.696 16.6947 239.331 19.38 241.358 22.876C243.384 26.3213 244.626 30.4253 245.082 35.188ZM220.458 35.188C220.458 36.86 220.787 38.3547 221.446 39.672C222.155 40.9387 223.118 41.952 224.334 42.712C225.6 43.472 227.044 43.852 228.666 43.852C230.338 43.852 231.959 43.472 233.53 42.712C235.1 41.952 236.468 40.9387 237.634 39.672C238.85 38.3547 239.686 36.86 240.142 35.188C239.686 33.516 238.85 32.0213 237.634 30.704C236.468 29.3867 235.1 28.348 233.53 27.588C231.959 26.828 230.338 26.448 228.666 26.448C227.044 26.448 225.6 26.828 224.334 27.588C223.118 28.348 222.155 29.3867 221.446 30.704C220.787 32.0213 220.458 33.516 220.458 35.188ZM267.559 57V-4.52995e-06H287.015V41.724L282.075 37.544L310.423 -4.52995e-06H330.943L285.343 57H267.559ZM294.919 30.78L309.359 19.456L331.703 57H309.511L294.919 30.78ZM369.526 57L367.322 41.572L369.526 35.188L367.322 28.88L369.526 13.3H389.59L386.55 35.112L389.59 57H369.526ZM373.554 35.188C373.048 39.8493 371.781 43.928 369.754 47.424C367.778 50.8693 365.169 53.5547 361.926 55.48C358.734 57.4053 355.061 58.368 350.906 58.368C346.65 58.368 342.901 57.4053 339.658 55.48C336.466 53.5547 333.958 50.844 332.134 47.348C330.361 43.852 329.474 39.7987 329.474 35.188C329.474 30.5267 330.361 26.448 332.134 22.952C333.958 19.456 336.466 16.7453 339.658 14.82C342.901 12.8947 346.65 11.932 350.906 11.932C355.061 11.932 358.734 12.8947 361.926 14.82C365.169 16.6947 367.804 19.38 369.83 22.876C371.857 26.3213 373.098 30.4253 373.554 35.188ZM348.93 35.188C348.93 36.86 349.26 38.3547 349.918 39.672C350.628 40.9387 351.59 41.952 352.806 42.712C354.073 43.472 355.517 43.852 357.138 43.852C358.81 43.852 360.432 43.472 362.002 42.712C363.573 41.952 364.941 40.9387 366.106 39.672C367.322 38.3547 368.158 36.86 368.614 35.188C368.158 33.516 367.322 32.0213 366.106 30.704C364.941 29.3867 363.573 28.348 362.002 27.588C360.432 26.828 358.81 26.448 357.138 26.448C355.517 26.448 354.073 26.828 352.806 27.588C351.59 28.348 350.628 29.3867 349.918 30.704C349.26 32.0213 348.93 33.516 348.93 35.188ZM395.713 13.3H415.017V24.092L414.257 26.22V40.66L415.017 44.84V69.54H395.713V13.3ZM409.317 35.188C409.824 30.4253 411.065 26.3213 413.041 22.876C415.068 19.38 417.702 16.6947 420.945 14.82C424.188 12.8947 427.861 11.932 431.965 11.932C436.272 11.932 440.021 12.8947 443.213 14.82C446.405 16.7453 448.888 19.456 450.661 22.952C452.485 26.448 453.397 30.5267 453.397 35.188C453.397 39.7987 452.485 43.852 450.661 47.348C448.888 50.844 446.405 53.5547 443.213 55.48C440.021 57.4053 436.272 58.368 431.965 58.368C427.81 58.368 424.112 57.4053 420.869 55.48C417.677 53.5547 415.093 50.8693 413.117 47.424C411.141 43.928 409.874 39.8493 409.317 35.188ZM433.941 35.188C433.941 33.516 433.586 32.0213 432.877 30.704C432.218 29.3867 431.256 28.348 429.989 27.588C428.773 26.828 427.354 26.448 425.733 26.448C424.061 26.448 422.44 26.828 420.869 27.588C419.298 28.348 417.93 29.3867 416.765 30.704C415.6 32.0213 414.764 33.516 414.257 35.188C414.764 36.86 415.6 38.3547 416.765 39.672C417.93 40.9387 419.298 41.952 420.869 42.712C422.44 43.472 424.061 43.852 425.733 43.852C427.354 43.852 428.773 43.472 429.989 42.712C431.256 41.952 432.218 40.9387 432.877 39.672C433.586 38.3547 433.941 36.86 433.941 35.188ZM471.054 19.988H490.358V57H471.054V19.988ZM455.474 13.3H505.938V27.664H455.474V13.3ZM564.408 13.3H583.712V57H564.408V13.3ZM510.752 57V13.3H529.904V52.44L524.356 43.7H537.656C539.075 43.7 540.139 43.3707 540.848 42.712C541.608 42.0533 541.988 41.0907 541.988 39.824C541.988 38.5573 541.608 37.5947 540.848 36.936C540.139 36.2773 539.075 35.948 537.656 35.948H523.976V23.256H541.076C545.129 23.256 548.676 23.9653 551.716 25.384C554.756 26.752 557.112 28.7027 558.784 31.236C560.456 33.7693 561.292 36.7333 561.292 40.128C561.292 43.5227 560.456 46.4867 558.784 49.02C557.112 51.5533 554.781 53.5293 551.792 54.948C548.853 56.316 545.383 57 541.38 57H510.752Z" fill="url(#paint0_linear_2881_120)"/>
<defs>
<linearGradient id="paint0_linear_2881_120" x1="12.853" y1="-0.300637" x2="1214.21" y2="117.091" gradientUnits="userSpaceOnUse">
<stop offset="0.0729167" stop-color="#E3A455"/>
<stop offset="0.244792" stop-color="#F6DBA6"/>
<stop offset="0.324571" stop-color="#FFEBC4"/>
<stop offset="0.396419" stop-color="#F0BE79"/>
<stop offset="0.456983" stop-color="#E8AC6A"/>
<stop offset="0.519883" stop-color="#E0995B"/>
<stop offset="0.627652" stop-color="#D17941"/>
<stop offset="0.675319" stop-color="#BA7F3B"/>
<stop offset="0.770409" stop-color="#EEBC70"/>
</linearGradient>
</defs>
</svg>
