<svg width="562" height="60" viewBox="0 0 562 60" fill="none" xmlns="http://www.w3.org/2000/svg">
<path d="M87.7799 1.52002V58.52H69.1599V8.89202L72.7319 9.34802L53.5799 58.52H34.1999L15.0479 9.57602L18.6199 9.04402V58.52H-5.84126e-05V1.52002H30.3239L47.3479 47.956H40.5839L57.4559 1.52002H87.7799ZM121.877 59.888C116.456 59.888 111.592 58.9254 107.285 57C103.029 55.024 99.6599 52.288 97.1772 48.792C94.6946 45.2454 93.4532 41.1414 93.4532 36.48C93.4532 31.8694 94.6439 27.8414 97.0252 24.396C99.4572 20.9507 102.751 18.2654 106.905 16.34C111.06 14.4147 115.721 13.452 120.889 13.452C126.311 13.452 130.921 14.5667 134.721 16.796C138.521 19.0254 141.435 22.192 143.461 26.296C145.488 30.3494 146.501 35.1627 146.501 40.736H109.261V31.844H135.253L130.085 34.732C129.832 32.756 129.325 31.1094 128.565 29.792C127.805 28.4747 126.792 27.4867 125.525 26.828C124.309 26.1187 122.84 25.764 121.117 25.764C119.192 25.764 117.545 26.1947 116.177 27.056C114.86 27.9174 113.847 29.108 113.137 30.628C112.479 32.0974 112.149 33.7694 112.149 35.644C112.149 38.076 112.681 40.128 113.745 41.8C114.86 43.4214 116.532 44.6627 118.761 45.524C120.991 46.3854 123.803 46.816 127.197 46.816C130.491 46.816 133.683 46.4107 136.773 45.6C139.915 44.7387 142.803 43.5227 145.437 41.952V52.896C142.195 55.176 138.496 56.924 134.341 58.14C130.237 59.3054 126.083 59.888 121.877 59.888ZM148.119 28.88V20.596L156.707 16.264L165.143 2.88802H176.011V14.82H193.111V28.88H176.011V37.848C176.011 40.6347 176.543 42.6107 177.607 43.776C178.671 44.8907 180.849 45.448 184.143 45.448C186.169 45.448 187.968 45.3214 189.539 45.068C191.16 44.764 192.604 44.4094 193.871 44.004V57.988C192.148 58.4947 190.02 58.9254 187.487 59.28C185.004 59.6854 182.395 59.888 179.659 59.888C174.491 59.888 170.209 59.128 166.815 57.608C163.42 56.0374 160.887 53.7827 159.215 50.844C157.543 47.9054 156.707 44.4094 156.707 40.356V28.88H148.119ZM237.194 58.52L234.99 43.092L237.194 36.708L234.99 30.4L237.194 14.82H257.258L254.218 36.632L257.258 58.52H237.194ZM241.222 36.708C240.715 41.3694 239.449 45.448 237.422 48.944C235.446 52.3894 232.837 55.0747 229.594 57C226.402 58.9254 222.729 59.888 218.574 59.888C214.318 59.888 210.569 58.9254 207.326 57C204.134 55.0747 201.626 52.364 199.802 48.868C198.029 45.372 197.142 41.3187 197.142 36.708C197.142 32.0467 198.029 27.968 199.802 24.472C201.626 20.976 204.134 18.2654 207.326 16.34C210.569 14.4147 214.318 13.452 218.574 13.452C222.729 13.452 226.402 14.4147 229.594 16.34C232.837 18.2147 235.471 20.9 237.498 24.396C239.525 27.8414 240.766 31.9454 241.222 36.708ZM216.598 36.708C216.598 38.38 216.927 39.8747 217.586 41.192C218.295 42.4587 219.258 43.472 220.474 44.232C221.741 44.992 223.185 45.372 224.806 45.372C226.478 45.372 228.099 44.992 229.67 44.232C231.241 43.472 232.609 42.4587 233.774 41.192C234.99 39.8747 235.826 38.38 236.282 36.708C235.826 35.036 234.99 33.5414 233.774 32.224C232.609 30.9067 231.241 29.868 229.67 29.108C228.099 28.348 226.478 27.968 224.806 27.968C223.185 27.968 221.741 28.348 220.474 29.108C219.258 29.868 218.295 30.9067 217.586 32.224C216.927 33.5414 216.598 35.036 216.598 36.708ZM328.989 33.82C328.381 39.0387 326.582 43.5987 323.593 47.5C320.654 51.4014 316.753 54.4414 311.889 56.62C307.025 58.7987 301.451 59.888 295.169 59.888C288.379 59.888 282.451 58.6467 277.385 56.164C272.318 53.6814 268.366 50.2107 265.529 45.752C262.742 41.2427 261.349 35.9987 261.349 30.02C261.349 24.0414 262.742 18.8227 265.529 14.364C268.366 9.85468 272.318 6.35868 277.385 3.87602C282.451 1.39335 288.379 0.152019 295.169 0.152019C301.451 0.152019 307.025 1.24135 311.889 3.42002C316.753 5.59868 320.654 8.63868 323.593 12.54C326.582 16.4414 328.381 21.0014 328.989 26.22H309.305C308.849 24.244 308.013 22.572 306.797 21.204C305.581 19.7853 303.985 18.7213 302.009 18.012C300.083 17.252 297.803 16.872 295.169 16.872C292.23 16.872 289.697 17.404 287.569 18.468C285.491 19.4814 283.895 20.976 282.781 22.952C281.666 24.928 281.109 27.284 281.109 30.02C281.109 32.756 281.666 35.112 282.781 37.088C283.895 39.0134 285.491 40.508 287.569 41.572C289.697 42.636 292.23 43.168 295.169 43.168C297.803 43.168 300.083 42.8387 302.009 42.18C303.985 41.4707 305.581 40.432 306.797 39.064C308.013 37.6454 308.849 35.8974 309.305 33.82H328.989ZM372.866 58.52L370.662 43.092L372.866 36.708L370.662 30.4L372.866 14.82H392.93L389.89 36.632L392.93 58.52H372.866ZM376.894 36.708C376.387 41.3694 375.121 45.448 373.094 48.944C371.118 52.3894 368.509 55.0747 365.266 57C362.074 58.9254 358.401 59.888 354.246 59.888C349.99 59.888 346.241 58.9254 342.998 57C339.806 55.0747 337.298 52.364 335.474 48.868C333.701 45.372 332.814 41.3187 332.814 36.708C332.814 32.0467 333.701 27.968 335.474 24.472C337.298 20.976 339.806 18.2654 342.998 16.34C346.241 14.4147 349.99 13.452 354.246 13.452C358.401 13.452 362.074 14.4147 365.266 16.34C368.509 18.2147 371.143 20.9 373.17 24.396C375.197 27.8414 376.438 31.9454 376.894 36.708ZM352.27 36.708C352.27 38.38 352.599 39.8747 353.258 41.192C353.967 42.4587 354.93 43.472 356.146 44.232C357.413 44.992 358.857 45.372 360.478 45.372C362.15 45.372 363.771 44.992 365.342 44.232C366.913 43.472 368.281 42.4587 369.446 41.192C370.662 39.8747 371.498 38.38 371.954 36.708C371.498 35.036 370.662 33.5414 369.446 32.224C368.281 30.9067 366.913 29.868 365.342 29.108C363.771 28.348 362.15 27.968 360.478 27.968C358.857 27.968 357.413 28.348 356.146 29.108C354.93 29.868 353.967 30.9067 353.258 32.224C352.599 33.5414 352.27 35.036 352.27 36.708ZM397.001 14.82H416.761L419.345 30.248V58.52H400.041V30.02L397.001 14.82ZM438.649 13.908V30.248C436.926 29.944 435.381 29.7414 434.013 29.64C432.645 29.488 431.429 29.412 430.365 29.412C428.439 29.412 426.641 29.7667 424.969 30.476C423.297 31.1347 421.929 32.3507 420.865 34.124C419.851 35.8974 419.345 38.4307 419.345 41.724L415.925 37.468C416.431 34.3267 417.065 31.3374 417.825 28.5C418.635 25.612 419.699 23.0534 421.017 20.824C422.334 18.544 424.006 16.7454 426.033 15.428C428.059 14.1107 430.593 13.452 433.633 13.452C434.393 13.452 435.178 13.5027 435.989 13.604C436.799 13.6547 437.686 13.756 438.649 13.908ZM481.68 58.52L479.476 42.256L482.44 36.86L479.476 29.564L483.428 1.64509e-05H503.492L498.628 35.112L501.744 58.52H481.68ZM485.328 36.708C484.821 41.3694 483.554 45.448 481.528 48.944C479.552 52.3894 476.942 55.0747 473.7 57C470.508 58.9254 466.834 59.888 462.68 59.888C458.424 59.888 454.674 58.9254 451.432 57C448.24 55.0747 445.732 52.364 443.908 48.868C442.134 45.372 441.248 41.3187 441.248 36.708C441.248 32.0467 442.134 27.968 443.908 24.472C445.732 20.976 448.24 18.2654 451.432 16.34C454.674 14.4147 458.424 13.452 462.68 13.452C466.834 13.452 470.508 14.4147 473.7 16.34C476.942 18.2147 479.577 20.9 481.604 24.396C483.63 27.8414 484.872 31.9454 485.328 36.708ZM460.704 36.708C460.704 38.38 461.033 39.8747 461.692 41.192C462.401 42.4587 463.364 43.472 464.58 44.232C465.846 44.992 467.29 45.372 468.912 45.372C470.584 45.372 472.205 44.992 473.776 44.232C475.346 43.472 476.714 42.4587 477.88 41.192C479.096 39.8747 479.932 38.38 480.388 36.708C479.932 35.036 479.096 33.5414 477.88 32.224C476.714 30.9067 475.346 29.868 473.776 29.108C472.205 28.348 470.584 27.968 468.912 27.968C467.29 27.968 465.846 28.348 464.58 29.108C463.364 29.868 462.401 30.9067 461.692 32.224C461.033 33.5414 460.704 35.036 460.704 36.708ZM561.971 43.624C561.971 47.272 560.831 50.312 558.551 52.744C556.271 55.1254 553.079 56.924 548.975 58.14C544.922 59.3054 540.159 59.888 534.687 59.888C529.063 59.888 524.098 59.2294 519.791 57.912C515.535 56.544 512.166 54.644 509.683 52.212C507.251 49.78 505.959 46.9427 505.807 43.7H525.415C525.77 44.6627 526.378 45.4734 527.239 46.132C528.101 46.74 529.215 47.2214 530.583 47.576C532.002 47.88 533.725 48.032 535.751 48.032C538.183 48.032 540.033 47.804 541.299 47.348C542.566 46.8414 543.199 46.1574 543.199 45.296C543.199 44.4347 542.667 43.8267 541.603 43.472C540.539 43.1174 538.817 42.864 536.435 42.712L529.291 42.256C523.769 41.9014 519.361 41.192 516.067 40.128C512.825 39.0134 510.494 37.5187 509.075 35.644C507.657 33.7694 506.947 31.5147 506.947 28.88C506.947 25.384 508.037 22.496 510.215 20.216C512.445 17.936 515.535 16.2387 519.487 15.124C523.439 14.0093 528.05 13.452 533.319 13.452C538.487 13.452 543.073 14.1107 547.075 15.428C551.078 16.6947 554.295 18.4933 556.727 20.824C559.159 23.1547 560.578 25.8654 560.983 28.956H541.375C541.122 28.044 540.615 27.2587 539.855 26.6C539.095 25.9414 538.107 25.4347 536.891 25.08C535.675 24.7254 534.206 24.548 532.483 24.548C530.153 24.548 528.455 24.8267 527.391 25.384C526.327 25.8907 525.795 26.5747 525.795 27.436C525.795 28.2467 526.125 28.8294 526.783 29.184C527.442 29.488 528.734 29.6907 530.659 29.792L540.235 30.4C545.707 30.704 550.014 31.4134 553.155 32.528C556.347 33.592 558.602 35.036 559.919 36.86C561.287 38.684 561.971 40.9387 561.971 43.624Z" fill="url(#paint0_linear_2881_122)"/>
<defs>
<linearGradient id="paint0_linear_2881_122" x1="11.985" y1="1.21938" x2="1167.5" y2="109.745" gradientUnits="userSpaceOnUse">
<stop offset="0.0729167" stop-color="#E3A455"/>
<stop offset="0.244792" stop-color="#F6DBA6"/>
<stop offset="0.324571" stop-color="#FFEBC4"/>
<stop offset="0.396419" stop-color="#F0BE79"/>
<stop offset="0.456983" stop-color="#E8AC6A"/>
<stop offset="0.519883" stop-color="#E0995B"/>
<stop offset="0.627652" stop-color="#D17941"/>
<stop offset="0.675319" stop-color="#BA7F3B"/>
<stop offset="0.770409" stop-color="#EEBC70"/>
</linearGradient>
</defs>
</svg>
